<svg xmlns="http://www.w3.org/2000/svg" viewBox="0 0 190.4 62.4"><defs><style>.a{fill:#3b3b3b;}.b{fill:#6a6b6c;}.c{fill:#1b1918;}.d{fill:#fff;}.e{fill:#e11321;}.f{fill:#024d9a;}</style></defs><path class="a" d="M175.5,47.3h1.2v5.5h-1.2Z"/><path class="a" d="M156,47.3h1.2v5.5H156Z"/><path class="a" d="M12.8,47.3H14v5.5H12.8Z"/><path class="b" d="M58.6,12.6a7.3,7.3,0,1,0,7.3,7.3A7.34,7.34,0,0,0,58.6,12.6Z"/><path class="c" d="M58.6,16a3.9,3.9,0,1,0,3.9,3.9A3.84,3.84,0,0,0,58.6,16Z"/><path class="d" d="M61,14.2l-2,4a2.37,2.37,0,0,1,1.1,1.3l4.3-1.4A6.93,6.93,0,0,0,61,14.2Z"/><path class="a" d="M1.7,48.4H0V47.3H4.6v1.1H2.9v4.4H1.7Z"/><path class="a" d="M8.7,49.9a1.45,1.45,0,0,0,.7-.2.85.85,0,0,0,.2-.6h0a.6.6,0,0,0-.3-.6,1.45,1.45,0,0,0-.7-.2H7.5v1.6Zm0,0ZM6.3,47.3H8.8a2.35,2.35,0,0,1,1.6.5,1.73,1.73,0,0,1,.5,1.3h0a1.8,1.8,0,0,1-.3,1.1,1.46,1.46,0,0,1-.9.6l1.4,2H9.6L8.4,51H7.5v1.8H6.3Z"/><path class="a" d="M18.8,51.7c.3,0,.5,0,.6-.1a.76.76,0,0,0,.2-.5h0c0-.2-.1-.3-.2-.5s-.4-.1-.7-.1H17.3v1.2Zm0,0Zm-.3-2.2c.3,0,.5-.1.7-.1s.2-.2.2-.5h0a.52.52,0,0,0-.2-.4c-.1-.1-.3-.1-.6-.1H17.4v1.2h1.1Zm0,0Zm-2.3-2.2h2.6a1.62,1.62,0,0,1,1.4.5,1.22,1.22,0,0,1,.4.9h0c0,.2,0,.3-.1.4s-.1.2-.1.3-.1.2-.2.3-.2.1-.3.2a2.18,2.18,0,0,1,.8.5,1.22,1.22,0,0,1,.3.9h0a1.48,1.48,0,0,1-.1.7,1.76,1.76,0,0,1-.4.5,4.88,4.88,0,0,1-.7.3,2,2,0,0,1-.8.1H16.4V47.3Z"/><path class="a" d="M24.9,52.9a2.61,2.61,0,0,1-1.8-.6,2.44,2.44,0,0,1-.6-1.8V47.4h1.2v3.1a1.33,1.33,0,0,0,.3,1,1.5,1.5,0,0,0,1.8,0,1.49,1.49,0,0,0,.3-1V47.3h1.2v3.1a3.59,3.59,0,0,1-.2,1.1,2.1,2.1,0,0,1-1.3,1.3C25.6,52.8,25.3,52.9,24.9,52.9Z"/><path class="a" d="M29.4,47.3h1.1l2.6,3.4V47.3h1.2v5.5h-1l-2.7-3.5v3.5H29.4Z"/><path class="a" d="M39.5,50.5l-.7-1.8-.7,1.8Zm0,0Zm-1.2-3.2h1.1l2.4,5.6H40.6L40,51.6H37.7l-.5,1.2H36Z"/><path class="a" d="M43.4,47.3h1.2v4.4h2.8v1.1h-4Z"/><path class="a" d="M54.3,51.7a1.48,1.48,0,0,0,.7-.1,2.19,2.19,0,0,0,.5-.3.85.85,0,0,0,.3-.5,1.45,1.45,0,0,0,.2-.7h0a1.45,1.45,0,0,0-.2-.7,2.19,2.19,0,0,0-.3-.5c-.2-.1-.3-.3-.5-.3a1.48,1.48,0,0,0-.7-.1h-1v3.3h1Zm0,0Zm-2.1-4.4h2.2a5,5,0,0,1,1.2.2,2.07,2.07,0,0,1,1,.6,1.8,1.8,0,0,1,.6.9,4.25,4.25,0,0,1,.2,1.1v.1a4.25,4.25,0,0,1-.2,1.1,1.8,1.8,0,0,1-.6.9,8.79,8.79,0,0,1-1,.6,5,5,0,0,1-1.2.2H52.2Z"/><path class="a" d="M59.1,47.3h4.2v1.1h-3v1.1h2.6v1.1H60.3v1.2h3v1.1H59.1Z"/><path class="a" d="M70.9,52.9a5,5,0,0,1-1.2-.2l-.9-.6a1.8,1.8,0,0,1-.6-.9,4.25,4.25,0,0,1-.2-1.1h0a3.59,3.59,0,0,1,.2-1.1,1.46,1.46,0,0,1,.6-.9,1.8,1.8,0,0,1,.9-.6,3.73,3.73,0,0,1,1.2-.2,1.48,1.48,0,0,1,.7.1,1.42,1.42,0,0,1,.6.2c.2.1.3.2.5.3s.3.2.4.3l-.8.8a1.79,1.79,0,0,0-.7-.5,1.88,1.88,0,0,0-.8-.2,1.7,1.7,0,0,0-.7.1,1,1,0,0,0-.5.4.85.85,0,0,0-.3.5,1.48,1.48,0,0,0-.1.7h0c0,.2.1.5.1.7a1.73,1.73,0,0,0,.8.9,1.48,1.48,0,0,0,.7.1,1.88,1.88,0,0,0,.8-.2c.2-.1.4-.3.7-.5l.8.8a4.56,4.56,0,0,1-1,.7c-.2.1-.4.1-.6.2S71.2,52.9,70.9,52.9Z"/><path class="a" d="M77.6,51.8c.2,0,.5-.1.7-.1a1,1,0,0,0,.5-.4,2.18,2.18,0,0,0,.4-.5,1.48,1.48,0,0,0,.1-.7h0a1.7,1.7,0,0,0-.1-.7,1,1,0,0,0-.4-.5,1.76,1.76,0,0,0-.5-.4,1.48,1.48,0,0,0-.7-.1,1.7,1.7,0,0,0-.7.1,1,1,0,0,0-.5.4,2.18,2.18,0,0,0-.4.5,1.48,1.48,0,0,0-.1.7h0c0,.2.1.5.1.7a1,1,0,0,0,.4.5,2.18,2.18,0,0,0,.5.4A1.48,1.48,0,0,0,77.6,51.8Zm0,0Zm0,1.1a5,5,0,0,1-1.2-.2,2.07,2.07,0,0,1-1-.6,1.8,1.8,0,0,1-.6-.9,3.59,3.59,0,0,1-.2-1.1h0a3.59,3.59,0,0,1,.2-1.1,2,2,0,0,1,.6-.9,2.42,2.42,0,0,1,1-.6,3.73,3.73,0,0,1,1.2-.2,4.3,4.3,0,0,1,1.2.2,8.79,8.79,0,0,1,1,.6,1.46,1.46,0,0,1,.6.9,3.59,3.59,0,0,1,.2,1.1h0a3.59,3.59,0,0,1-.2,1.1,1.46,1.46,0,0,1-.6.9,2.07,2.07,0,0,1-1,.6A2.54,2.54,0,0,1,77.6,52.9Z"/><path class="a" d="M82.3,47.3h1.1L86,50.7V47.3h1.2v5.5h-1l-2.7-3.5v3.5H82.3Z"/><path class="a" d="M90.7,48.4H89V47.3h4.6v1.1H91.9v4.4H90.7Z"/><path class="a" d="M98.4,50.5l-.7-1.8L97,50.5Zm0,0Zm-1.3-3.2h1.1l2.4,5.6H99.4l-.5-1.2H96.6L96,52.8H94.8Z"/><path class="a" d="M104.2,52.9a5.07,5.07,0,0,1-1.3-.2,2.59,2.59,0,0,1-1.1-.7l.7-.9a3.51,3.51,0,0,0,.8.5,2.92,2.92,0,0,0,.9.2c.3,0,.4-.1.6-.1a.76.76,0,0,0,.2-.4h0c0-.1,0-.2-.1-.2s-.1-.1-.2-.2a.37.37,0,0,0-.3-.1c-.1-.1-.3-.1-.6-.2s-.5-.1-.8-.2l-.6-.3a1,1,0,0,1-.4-.5,1.48,1.48,0,0,1-.1-.7h0c0-.3.1-.5.1-.7a.66.66,0,0,1,.4-.5.86.86,0,0,1,.6-.3,2.2,2.2,0,0,1,.8-.1,3.59,3.59,0,0,1,1.1.2,2.62,2.62,0,0,1,.9.5l-.6.9a5.74,5.74,0,0,0-.7-.4,1.7,1.7,0,0,0-.7-.1,4.33,4.33,0,0,0-.5.1.52.52,0,0,0-.2.4h0c0,.1,0,.2.1.2s.1.1.2.2.2.1.4.1.4.1.6.2a4.88,4.88,0,0,1,.7.3l.6.3a.85.85,0,0,1,.3.5,1.27,1.27,0,0,1,.1.6h0c0,.3-.1.5-.1.8a2.18,2.18,0,0,1-.4.5,1.14,1.14,0,0,1-.6.3Z"/><path class="a" d="M113.4,51.7a1.48,1.48,0,0,0,.7-.1,2.19,2.19,0,0,0,.5-.3.85.85,0,0,0,.3-.5,1.45,1.45,0,0,0,.2-.7h0a1.45,1.45,0,0,0-.2-.7,2.19,2.19,0,0,0-.3-.5c-.2-.1-.3-.3-.5-.3a1.48,1.48,0,0,0-.7-.1h-1v3.3h1Zm0,0Zm-2.2-4.4h2.2a5,5,0,0,1,1.2.2,2.07,2.07,0,0,1,1,.6,1.8,1.8,0,0,1,.6.9,4.25,4.25,0,0,1,.2,1.1v.1a4.25,4.25,0,0,1-.2,1.1,1.8,1.8,0,0,1-.6.9,8.79,8.79,0,0,1-1,.6,5,5,0,0,1-1.2.2h-2.2Z"/><path class="a" d="M120.8,51.8c.2,0,.5-.1.7-.1a1,1,0,0,0,.5-.4,2.18,2.18,0,0,0,.4-.5,1.48,1.48,0,0,0,.1-.7h0a1.7,1.7,0,0,0-.1-.7,1,1,0,0,0-.4-.5,1.76,1.76,0,0,0-.5-.4,1.48,1.48,0,0,0-.7-.1,1.7,1.7,0,0,0-.7.1,1,1,0,0,0-.5.4,2.18,2.18,0,0,0-.4.5,1.48,1.48,0,0,0-.1.7h0c0,.2.1.5.1.7a1,1,0,0,0,.4.5,2.18,2.18,0,0,0,.5.4A1.7,1.7,0,0,0,120.8,51.8Zm0,0Zm0,1.1a5,5,0,0,1-1.2-.2,2.07,2.07,0,0,1-1-.6,1.8,1.8,0,0,1-.6-.9,3.59,3.59,0,0,1-.2-1.1h0A3.59,3.59,0,0,1,118,49a2,2,0,0,1,.6-.9,2.84,2.84,0,0,1,.9-.6,3.7,3.7,0,0,1,2.4,0,8.79,8.79,0,0,1,1,.6,1.46,1.46,0,0,1,.6.9,3.59,3.59,0,0,1,.2,1.1h0a3.59,3.59,0,0,1-.2,1.1,1.46,1.46,0,0,1-.6.9,2.07,2.07,0,0,1-1,.6A2,2,0,0,1,120.8,52.9Z"/><path class="a" d="M127.6,52.9a5.07,5.07,0,0,1-1.3-.2,2.59,2.59,0,0,1-1.1-.7l.7-.9a3.51,3.51,0,0,0,.8.5,2.92,2.92,0,0,0,.9.2c.3,0,.4-.1.6-.1a.76.76,0,0,0,.2-.4h0c0-.1,0-.2-.1-.2s-.1-.1-.2-.2a.37.37,0,0,0-.3-.1c-.1-.1-.3-.1-.6-.2s-.5-.1-.8-.2l-.6-.3a1,1,0,0,1-.4-.5,1.48,1.48,0,0,1-.1-.7h0c0-.3.1-.5.1-.7a1,1,0,0,1,.4-.5.86.86,0,0,1,.6-.3,2.2,2.2,0,0,1,.8-.1,3.59,3.59,0,0,1,1.1.2,2.62,2.62,0,0,1,.9.5l-.6.9a5.74,5.74,0,0,0-.7-.4,1.7,1.7,0,0,0-.7-.1,4.33,4.33,0,0,0-.5.1.52.52,0,0,0-.2.4h0c0,.1,0,.2.1.2s.1.1.2.2.2.1.4.1.4.1.6.2a4.88,4.88,0,0,1,.7.3l.6.3a.85.85,0,0,1,.3.5,1.27,1.27,0,0,1,.1.6h0c0,.3-.1.5-.1.8a2.18,2.18,0,0,1-.4.5c-.2.1-.4.3-.6.3Z"/><path class="a" d="M134.6,47.3h1.3l1.5,2.3,1.4-2.3h1.3v5.5h-1.2V49.2l-1.6,2.4h-.1l-1.5-2.4v3.6h-1.2V47.3Z"/><path class="a" d="M144.5,52.9a2.61,2.61,0,0,1-1.8-.6,2.44,2.44,0,0,1-.6-1.8V47.4h1.2v3.1a1.33,1.33,0,0,0,.3,1,1.5,1.5,0,0,0,1.8,0,1.49,1.49,0,0,0,.3-1V47.3h1.2v3.1a3.59,3.59,0,0,1-.2,1.1,2.1,2.1,0,0,1-1.3,1.3C145.2,52.8,144.9,52.9,144.5,52.9Z"/><path class="a" d="M148.9,47.3H150l2.6,3.4V47.3h1.2v5.5h-1l-2.7-3.5v3.5h-1.2V47.3Z"/><path class="a" d="M161.9,52.9a5,5,0,0,1-1.2-.2l-.9-.6a1.8,1.8,0,0,1-.6-.9,4.25,4.25,0,0,1-.2-1.1h0a3.59,3.59,0,0,1,.2-1.1,1.46,1.46,0,0,1,.6-.9,1.8,1.8,0,0,1,.9-.6,3.73,3.73,0,0,1,1.2-.2,1.48,1.48,0,0,1,.7.1,1.42,1.42,0,0,1,.6.2c.2.1.3.2.5.3s.3.2.4.3l-.8.9a1.79,1.79,0,0,0-.7-.5,1.88,1.88,0,0,0-.8-.2,1.7,1.7,0,0,0-.7.1,1,1,0,0,0-.5.4.85.85,0,0,0-.3.5,1.48,1.48,0,0,0-.1.7h0c0,.2.1.5.1.7a1.73,1.73,0,0,0,.8.9,1.48,1.48,0,0,0,.7.1,1.88,1.88,0,0,0,.8-.2c.2-.1.4-.3.7-.5l.8.8a4.56,4.56,0,0,1-1,.7c-.2.1-.4.1-.6.2C162.5,52.9,162.2,52.9,161.9,52.9Z"/><path class="a" d="M167,45.5l1.1.4-1,1h-.9Zm0,0Zm-1,1.8h1.2v5.6H166Z"/><path class="a" d="M171.6,50.1a.91.91,0,0,0,.7-.3.86.86,0,0,0,.3-.6h0a.6.6,0,0,0-.3-.6,1.45,1.45,0,0,0-.7-.2h-.9v1.7Zm0,0Zm-2.2-2.8h2.3a2.77,2.77,0,0,1,.9.1,1.61,1.61,0,0,1,.7.4,2.09,2.09,0,0,1,.4.6,2.2,2.2,0,0,1,.1.8h0a2.92,2.92,0,0,1-.2.9,1.47,1.47,0,0,1-.5.6,1.61,1.61,0,0,1-.7.4,2.48,2.48,0,0,1-.9.1h-.9v1.7h-1.2V47.3Z"/><path class="a" d="M181.5,51.8c.2,0,.5-.1.7-.1a1,1,0,0,0,.5-.4,2.18,2.18,0,0,0,.4-.5,1.48,1.48,0,0,0,.1-.7h0a1.7,1.7,0,0,0-.1-.7,1,1,0,0,0-.4-.5,1.76,1.76,0,0,0-.5-.4,1.48,1.48,0,0,0-.7-.1,1.7,1.7,0,0,0-.7.1,1,1,0,0,0-.5.4,2.18,2.18,0,0,0-.4.5,1.48,1.48,0,0,0-.1.7h0c0,.2.1.5.1.7a1,1,0,0,0,.4.5,2.18,2.18,0,0,0,.5.4A1.7,1.7,0,0,0,181.5,51.8Zm0,0Zm0,1.1a5,5,0,0,1-1.2-.2,2.07,2.07,0,0,1-1-.6,1.8,1.8,0,0,1-.6-.9,3.59,3.59,0,0,1-.2-1.1h0a3.59,3.59,0,0,1,.2-1.1,2,2,0,0,1,.6-.9,2.84,2.84,0,0,1,.9-.6,3.7,3.7,0,0,1,2.4,0,8.79,8.79,0,0,1,1,.6,1.46,1.46,0,0,1,.6.9,3.59,3.59,0,0,1,.2,1.1h0a3.59,3.59,0,0,1-.2,1.1,1.46,1.46,0,0,1-.6.9,2.07,2.07,0,0,1-1,.6A2,2,0,0,1,181.5,52.9Z"/><path class="a" d="M188.3,52.9a5.07,5.07,0,0,1-1.3-.2,2.59,2.59,0,0,1-1.1-.7l.7-.9a3.51,3.51,0,0,0,.8.5,2.92,2.92,0,0,0,.9.2c.3,0,.4-.1.6-.1a.76.76,0,0,0,.2-.4h0c0-.1,0-.2-.1-.2s-.1-.1-.2-.2a.37.37,0,0,0-.3-.1c-.1-.1-.3-.1-.6-.2s-.5-.1-.8-.2l-.6-.3a1,1,0,0,1-.4-.5,1.48,1.48,0,0,1-.1-.7h0c0-.3.1-.5.1-.7a1,1,0,0,1,.4-.5.86.86,0,0,1,.6-.3,2.2,2.2,0,0,1,.8-.1,3.59,3.59,0,0,1,1.1.2,2.62,2.62,0,0,1,.9.5l-.6.9a5.74,5.74,0,0,0-.7-.4,1.7,1.7,0,0,0-.7-.1,4.33,4.33,0,0,0-.5.1.52.52,0,0,0-.2.4h0c0,.1,0,.2.1.2s.1.1.2.2.2.1.4.1.4.1.6.2a4.88,4.88,0,0,1,.7.3l.6.3a.85.85,0,0,1,.3.5,1.27,1.27,0,0,1,.1.6h0c0,.3-.1.5-.1.8a2.18,2.18,0,0,1-.4.5c-.2.1-.4.3-.6.3Z"/><path class="a" d="M46.4,61.1a1.48,1.48,0,0,0,.7-.1,2.19,2.19,0,0,0,.5-.3.85.85,0,0,0,.3-.5,1.45,1.45,0,0,0,.2-.7h0a1.45,1.45,0,0,0-.2-.7,2.19,2.19,0,0,0-.3-.5c-.2-.1-.3-.3-.5-.3a1.48,1.48,0,0,0-.7-.1h-1v3.3h1Zm0,0Zm-2.1-4.4h2.2a5,5,0,0,1,1.2.2,2.07,2.07,0,0,1,1,.6,1.8,1.8,0,0,1,.6.9,3.59,3.59,0,0,1,.2,1.1v.1a4.25,4.25,0,0,1-.2,1.1,1.8,1.8,0,0,1-.6.9,8.79,8.79,0,0,1-1,.6,5,5,0,0,1-1.2.2H44.3Z"/><path class="a" d="M53.9,61.3c.2,0,.5-.1.7-.1a1,1,0,0,0,.5-.4,2.18,2.18,0,0,0,.4-.5,1.48,1.48,0,0,0,.1-.7h0a1.7,1.7,0,0,0-.1-.7,1,1,0,0,0-.4-.5,1.76,1.76,0,0,0-.5-.4,1.48,1.48,0,0,0-.7-.1,1.7,1.7,0,0,0-.7.1,1,1,0,0,0-.5.4,2.18,2.18,0,0,0-.4.5,1.48,1.48,0,0,0-.1.7h0c0,.2.1.5.1.7a1,1,0,0,0,.4.5,2.18,2.18,0,0,0,.5.4C53.5,61.2,53.7,61.3,53.9,61.3Zm0,0Zm0,1.1a5,5,0,0,1-1.2-.2,2.07,2.07,0,0,1-1-.6,1.8,1.8,0,0,1-.6-.9,3.59,3.59,0,0,1-.2-1.1h0a3.59,3.59,0,0,1,.2-1.1,2,2,0,0,1,.6-.9,2.07,2.07,0,0,1,1-.6,3.73,3.73,0,0,1,1.2-.2,4.3,4.3,0,0,1,1.2.2,8.79,8.79,0,0,1,1,.6,1.8,1.8,0,0,1,.6.9,3.59,3.59,0,0,1,.2,1.1h0a3.59,3.59,0,0,1-.2,1.1,1.46,1.46,0,0,1-.6.9,2.07,2.07,0,0,1-1,.6A5,5,0,0,1,53.9,62.4Z"/><path class="a" d="M61.9,56.7H66v1.1H63v1.1h2.6V60H63v1.2h3v1.1H61.8V56.7Z"/><path class="a" d="M69.9,62.3a5.07,5.07,0,0,1-1.3-.2,2.59,2.59,0,0,1-1.1-.7l.7-.9a3.51,3.51,0,0,0,.8.5,2.92,2.92,0,0,0,.9.2c.3,0,.4-.1.6-.1a.76.76,0,0,0,.2-.4h0c0-.1,0-.2-.1-.2s-.1-.1-.2-.2a.37.37,0,0,0-.3-.1c-.1-.1-.3-.1-.6-.2s-.5-.1-.8-.2l-.6-.3a1,1,0,0,1-.4-.5,1.48,1.48,0,0,1-.1-.7h0c0-.3.1-.5.1-.7a1,1,0,0,1,.4-.5.86.86,0,0,1,.6-.3,2.2,2.2,0,0,1,.8-.1,3.59,3.59,0,0,1,1.1.2,2.62,2.62,0,0,1,.9.5l-.6.9a5.74,5.74,0,0,0-.7-.4,1.7,1.7,0,0,0-.7-.1,4.33,4.33,0,0,0-.5.1.52.52,0,0,0-.2.4h0c0,.1,0,.2.1.2s.1.1.2.2.2.1.4.1.4.1.6.2a4.88,4.88,0,0,1,.7.3l.6.3a.85.85,0,0,1,.3.5,1.27,1.27,0,0,1,.1.6h0c0,.3-.1.5-.1.8a2.18,2.18,0,0,1-.4.5c-.2.1-.4.3-.6.3Z"/><path class="a" d="M75,57.8H73.3V56.7h4.6v1.1H76.2v4.4H75Z"/><path class="a" d="M82.8,60,82,58.2,81.3,60Zm0,0Zm-1.3-3.3h1.1L85,62.3H83.8l-.5-1.2H81l-.5,1.2H79.3Z"/><path class="a" d="M88.8,61.1a1.48,1.48,0,0,0,.7-.1,2.19,2.19,0,0,0,.5-.3.85.85,0,0,0,.3-.5,1.48,1.48,0,0,0,.1-.7h0c0-.3-.1-.5-.1-.7a2.19,2.19,0,0,0-.3-.5c-.2-.1-.3-.3-.5-.3a1.48,1.48,0,0,0-.7-.1h-1v3.3h1Zm0,0Zm-2.2-4.4h2.2a5,5,0,0,1,1.2.2,2.07,2.07,0,0,1,1,.6,1.8,1.8,0,0,1,.6.9,3.59,3.59,0,0,1,.2,1.1v.1a4.25,4.25,0,0,1-.2,1.1,2.36,2.36,0,0,1-.6.9,8.79,8.79,0,0,1-1,.6,5,5,0,0,1-1.2.2H86.6Z"/><path class="a" d="M96.2,61.3c.2,0,.5-.1.7-.1a1,1,0,0,0,.5-.4,2.18,2.18,0,0,0,.4-.5,1.48,1.48,0,0,0,.1-.7h0a1.7,1.7,0,0,0-.1-.7,1,1,0,0,0-.4-.5,1.76,1.76,0,0,0-.5-.4,1.48,1.48,0,0,0-.7-.1,1.7,1.7,0,0,0-.7.1,1,1,0,0,0-.5.4,2.18,2.18,0,0,0-.4.5,1.48,1.48,0,0,0-.1.7h0c0,.2.1.5.1.7a1,1,0,0,0,.4.5,2.18,2.18,0,0,0,.5.4C95.8,61.2,96,61.3,96.2,61.3Zm0,0Zm0,1.1a5,5,0,0,1-1.2-.2,2.07,2.07,0,0,1-1-.6,1.8,1.8,0,0,1-.6-.9,3.59,3.59,0,0,1-.2-1.1h0a3.59,3.59,0,0,1,.2-1.1,2,2,0,0,1,.6-.9,2.42,2.42,0,0,1,1-.6,3.73,3.73,0,0,1,1.2-.2,5,5,0,0,1,1.2.2,8.79,8.79,0,0,1,1,.6,1.46,1.46,0,0,1,.6.9,3.59,3.59,0,0,1,.2,1.1h0a3.59,3.59,0,0,1-.2,1.1,1.46,1.46,0,0,1-.6.9,2.07,2.07,0,0,1-1,.6A5,5,0,0,1,96.2,62.4Z"/><path class="a" d="M106.3,61.1a1.48,1.48,0,0,0,.7-.1,2.19,2.19,0,0,0,.5-.3.85.85,0,0,0,.3-.5,1.48,1.48,0,0,0,.1-.7h0c0-.3-.1-.5-.1-.7a2.19,2.19,0,0,0-.3-.5c-.2-.1-.3-.3-.5-.3a1.48,1.48,0,0,0-.7-.1h-1v3.3h1Zm0,0Zm-2.2-4.4h2.2a5,5,0,0,1,1.2.2,2.07,2.07,0,0,1,1,.6,1.8,1.8,0,0,1,.6.9,3.59,3.59,0,0,1,.2,1.1v.1a4.25,4.25,0,0,1-.2,1.1,1.8,1.8,0,0,1-.6.9,8.79,8.79,0,0,1-1,.6,5,5,0,0,1-1.2.2h-2.2Z"/><path class="a" d="M113.8,61.3c.2,0,.5-.1.7-.1a1,1,0,0,0,.5-.4,2.18,2.18,0,0,0,.4-.5,1.48,1.48,0,0,0,.1-.7h0a1.7,1.7,0,0,0-.1-.7,1,1,0,0,0-.4-.5,1.76,1.76,0,0,0-.5-.4,1.48,1.48,0,0,0-.7-.1,1.7,1.7,0,0,0-.7.1,1,1,0,0,0-.5.4,2.18,2.18,0,0,0-.4.5,1.48,1.48,0,0,0-.1.7h0c0,.2.1.5.1.7a1,1,0,0,0,.4.5,2.18,2.18,0,0,0,.5.4C113.3,61.2,113.5,61.3,113.8,61.3Zm0,0Zm0,1.1a5,5,0,0,1-1.2-.2,2.07,2.07,0,0,1-1-.6,1.8,1.8,0,0,1-.6-.9,3.59,3.59,0,0,1-.2-1.1h0a3.59,3.59,0,0,1,.2-1.1,2,2,0,0,1,.6-.9,2.42,2.42,0,0,1,1-.6,3.73,3.73,0,0,1,1.2-.2,4.3,4.3,0,0,1,1.2.2,8.79,8.79,0,0,1,1,.6,1.46,1.46,0,0,1,.6.9,3.59,3.59,0,0,1,.2,1.1h0a3.59,3.59,0,0,1-.2,1.1,1.46,1.46,0,0,1-.6.9,2.07,2.07,0,0,1-1,.6A5,5,0,0,1,113.8,62.4Z"/><path class="a" d="M123.9,59.5a.91.91,0,0,0,.7-.3.86.86,0,0,0,.3-.6h0a.6.6,0,0,0-.3-.6,1.45,1.45,0,0,0-.7-.2H123v1.7Zm0,0Zm-2.2-2.8H124a2.77,2.77,0,0,1,.9.1,1.61,1.61,0,0,1,.7.4,2.09,2.09,0,0,1,.4.6,2.2,2.2,0,0,1,.1.8h0a2.92,2.92,0,0,1-.2.9,1.47,1.47,0,0,1-.5.6,1.61,1.61,0,0,1-.7.4,2.48,2.48,0,0,1-.9.1h-.9v1.7h-1.2Z"/><path class="a" d="M130.9,60l-.7-1.8-.7,1.8Zm0,0Zm-1.2-3.3h1.1l2.4,5.6H132l-.5-1.2H129l-.5,1.2h-1.2Z"/><path class="a" d="M137.2,59.4a1.45,1.45,0,0,0,.7-.2.85.85,0,0,0,.2-.6h0a.6.6,0,0,0-.3-.6,1.45,1.45,0,0,0-.7-.2h-1.2v1.6Zm0,0Zm-2.5-2.7h2.5a2.35,2.35,0,0,1,1.6.5,1.73,1.73,0,0,1,.5,1.3h0a1.8,1.8,0,0,1-.3,1.1,1.46,1.46,0,0,1-.9.6l1.4,2h-1.4l-1.2-1.8H136v1.8h-1.2V56.7Z"/><path class="a" d="M144.1,54.9l1,.4-1,1h-.9Zm0,0Zm.3,5.1-.7-1.8L143,60Zm0,0Zm-1.3-3.3h1.1l2.4,5.6h-1.2l-.5-1.2h-2.3l-.5,1.2h-1.2Z"/><path class="e" d="M133,5.1h9c6.1,0,9.6,2.8,9.6,7.7v.1a6.78,6.78,0,0,1-2.7,5.6,11.34,11.34,0,0,1-7.1,2.2H133Zm0,0ZM142.3.3H129.1a1.32,1.32,0,0,0-1.3,1.3V38.8H133V25.5h8.6a17.43,17.43,0,0,0,10.7-3.2,11.48,11.48,0,0,0,4.5-9.5v-.1a11.45,11.45,0,0,0-4-9.1C150.2,1.4,146.6.3,142.3.3Z"/><path class="e" d="M162.9,24l7.8-17.5L178.5,24Zm0,0Zm7.9-24a3.39,3.39,0,0,0-3.2,2.1L151.3,38l-.3.7h5.3l.1-.3,4.3-9.6h19.8l4.3,9.6.1.3h5.5l-.3-.7L174,2.1A3.59,3.59,0,0,0,170.8,0Z"/><path class="f" d="M24.7,38.9H15.1V9.8H.8V.8H39v9H24.7Z"/><path class="f" d="M119.4,38.9H109V19.5L98.7,30.7h-1l-10.1-11V39H77.4V.9h8.4l12.7,15L111.1.9h8.4v38Z"/><path class="f" d="M68.1,25.6l-.5.5c-2.8,2.5-5.2,3.9-9,4a9.9,9.9,0,0,1-7.1-2.9,10.23,10.23,0,0,1-2.8-7.1V20a10.15,10.15,0,0,1,2.7-7.1,9.6,9.6,0,0,1,7-3,10.89,10.89,0,0,1,6.2,1.8l.3.2,5.5-7.4h0l-.7-.4A19.73,19.73,0,0,0,58.3,1,20,20,0,0,0,44.1,6.6,18.65,18.65,0,0,0,38.7,20v.1a18.06,18.06,0,0,0,5.7,13.2,19.89,19.89,0,0,0,13.7,5.3h.2c6.4-.1,11.1-2,15.4-6.6l.5-.6Z"/></svg>